<svg version="1.1" id="Layer_1" xmlns="http://www.w3.org/2000/svg" xmlns:xlink="http://www.w3.org/1999/xlink" x="0px" y="0px"
	 width="100%" viewBox="0 0 500 400" enable-background="new 0 0 500 400" xml:space="preserve">
<path fill="#FFFFFF" opacity="1.000000" stroke="none" 
	d="
M305.000000,401.000000 
	C204.694382,401.000000 104.888741,400.981537 5.083219,401.082733 
	C1.841895,401.086029 0.891735,400.680206 0.895170,397.085266 
	C1.019961,266.454987 1.021583,135.824554 0.891436,5.194275 
	C0.887693,1.438265 1.846828,0.913272 5.303524,0.915322 
	C169.091339,1.012446 332.879181,1.011044 496.667023,0.922977 
	C500.037567,0.921165 501.118896,1.323906 501.114838,5.164806 
	C500.976685,135.795059 500.981018,266.425507 501.101593,397.055786 
	C501.104858,400.590393 500.251007,401.094513 496.946198,401.088348 
	C433.130951,400.969055 369.315460,401.000000 305.000000,401.000000 
z"/>
<path fill="#040404" opacity="1.000000" stroke="none" 
	d="
M297.000000,258.007599 
	C225.204132,258.007599 153.908081,257.945068 82.612747,258.141754 
	C77.611824,258.155518 76.788895,256.744446 76.826286,252.129044 
	C77.057022,223.645874 76.995941,195.159698 76.879005,166.675156 
	C76.865158,163.301422 77.165245,161.874268 81.279991,161.879486 
	C194.387054,162.023346 307.494354,162.019348 420.601440,161.890244 
	C424.552917,161.885727 425.098480,163.094925 425.080933,166.617264 
	C424.936493,195.601273 424.907074,224.586914 425.106049,253.570267 
	C425.132721,257.457062 424.023651,258.103424 420.434692,258.091858 
	C379.456787,257.959473 338.478333,258.007629 297.000000,258.007599 
z"/>
<path fill="#FEFEFE" opacity="1.000000" stroke="none" 
	d="
M246.000000,254.994644 
	C191.674835,254.994583 137.849487,254.937454 84.024834,255.104141 
	C79.772118,255.117310 78.922867,253.981262 78.952690,249.915436 
	C79.149490,223.087631 79.153275,196.256866 78.941589,169.429276 
	C78.910522,165.490906 80.112656,164.923004 83.657806,164.926010 
	C194.974167,165.020554 306.290649,165.027786 417.606934,164.903671 
	C421.626251,164.899185 422.431000,166.065399 422.408661,169.826675 
	C422.249451,196.655014 422.220032,223.485458 422.422180,250.313171 
	C422.452728,254.368622 421.205536,255.083908 417.473694,255.076279 
	C360.482635,254.959732 303.491272,254.994888 246.000000,254.994644 
z"/>
<path fill="#010101" opacity="1.000000" stroke="none" 
	d="
M125.000000,248.999374 
	C112.840836,248.999237 101.180489,248.910034 89.523354,249.063644 
	C86.723228,249.100540 85.922218,248.355484 85.936096,245.509354 
	C86.051414,221.858459 86.046791,198.206573 85.943108,174.555573 
	C85.931053,171.803894 86.573540,170.932190 89.463860,170.937057 
	C141.929962,171.025665 194.396286,171.019257 246.862442,170.947723 
	C249.440689,170.944199 250.222961,171.599045 250.211655,174.246704 
	C250.109909,198.064285 250.052765,221.883270 250.247787,245.699677 
	C250.279327,249.550735 248.219223,249.004654 245.922333,249.004272 
	C205.781555,248.997498 165.640778,248.999390 125.000000,248.999374 
z"/>
<path fill="#060606" opacity="1.000000" stroke="none" 
	d="
M388.233887,197.391464 
	C394.440460,194.721085 395.293671,195.213120 395.305328,201.039993 
	C395.316620,206.689301 395.395386,212.341003 395.243164,217.986221 
	C395.206543,219.343750 396.485046,221.643906 393.810577,221.931747 
	C391.780182,222.150269 389.701935,222.485901 388.151367,220.076416 
	C385.748230,216.342056 382.862030,212.918549 379.188904,208.048264 
	C379.188904,212.703583 378.977173,215.915970 379.248688,219.087006 
	C379.517761,222.229828 377.716309,222.081314 375.592743,222.032761 
	C373.554443,221.986130 371.768555,222.367859 371.924774,219.095413 
	C372.225525,212.795959 371.925964,206.469894 372.072266,200.159424 
	C372.104309,198.776566 370.778015,196.425659 373.317169,196.097534 
	C375.436249,195.823685 377.826599,195.200562 379.544281,197.803955 
	C381.886719,201.354294 384.661133,204.619598 388.201813,209.251953 
	C388.201813,204.563568 388.201813,201.204895 388.233887,197.391464 
z"/>
<path fill="#070707" opacity="1.000000" stroke="none" 
	d="
M314.413422,217.501526 
	C310.671478,211.253510 310.695892,205.077438 314.239349,200.486084 
	C317.564087,196.178116 324.603333,194.303589 330.582001,196.134094 
	C336.362732,197.903992 340.149689,203.817093 339.496796,210.054016 
	C338.774292,216.955933 334.335907,221.493027 327.799652,222.094269 
	C322.781738,222.555847 318.209808,221.748779 314.413422,217.501526 
z"/>
<path fill="#0C0C0C" opacity="1.000000" stroke="none" 
	d="
M351.344238,212.291687 
	C352.501953,214.915237 354.018066,216.145889 356.585541,215.350571 
	C359.021149,214.596085 359.179932,212.523392 359.243561,210.528259 
	C359.354675,207.045624 359.415649,203.554031 359.290680,200.073624 
	C359.197235,197.471466 359.283813,195.866501 362.821686,195.806549 
	C366.570374,195.743042 366.820496,197.431366 366.671661,200.268860 
	C366.445923,204.572052 366.705933,208.918716 366.223083,213.186218 
	C365.493103,219.638504 361.540924,222.433731 354.324524,222.171417 
	C348.274139,221.951462 344.313019,218.324905 344.024750,212.346695 
	C343.801147,207.708725 344.111328,203.045853 343.915344,198.405396 
	C343.783264,195.277054 345.841675,195.985458 347.529022,195.976730 
	C349.233429,195.967911 351.253235,195.316544 351.140503,198.419601 
	C350.977966,202.893066 351.171326,207.379456 351.344238,212.291687 
z"/>
<path fill="#060606" opacity="1.000000" stroke="none" 
	d="
M284.602203,214.892929 
	C286.874939,213.707199 287.009766,211.941269 286.979797,210.045959 
	C286.927399,206.732086 287.023376,203.415451 286.947235,200.102524 
	C286.891449,197.674362 286.670990,195.846802 290.347076,195.805359 
	C294.141327,195.762589 294.198822,197.492783 294.102661,200.255524 
	C293.952911,204.559738 294.201599,208.879913 293.994232,213.179474 
	C293.697571,219.331802 286.172089,224.130219 280.533569,221.946579 
	C278.215088,221.048706 279.579346,219.119705 279.334686,217.670197 
	C279.108582,216.330643 279.163971,214.922043 281.191010,214.993134 
	C282.183899,215.027939 283.179504,214.986374 284.602203,214.892929 
z"/>
<path fill="#010101" opacity="1.000000" stroke="none" 
	d="
M307.061340,211.975525 
	C307.060608,214.456665 306.899933,216.459763 307.098419,218.426620 
	C307.369934,221.117462 306.588715,222.058701 303.664429,222.124344 
	C300.469482,222.196045 299.795563,221.163895 299.907196,218.194565 
	C300.137146,212.076706 300.122772,205.939148 299.912903,199.819855 
	C299.813354,196.917145 300.398163,195.886688 303.631012,195.830872 
	C307.245667,195.768478 307.159180,197.550674 307.089172,200.057007 
	C306.982819,203.862396 307.061432,207.672958 307.061340,211.975525 
z"/>
<path fill="#EBEBEB" opacity="1.000000" stroke="none" 
	d="
M223.970749,203.113815 
	C224.755829,200.380997 222.118408,196.110184 225.560104,195.989853 
	C229.899811,195.838135 227.457458,200.302048 227.643539,202.619827 
	C228.042099,207.584198 227.868347,212.605545 227.711014,217.596680 
	C227.664948,219.058075 228.845459,221.182175 226.623795,221.943207 
	C224.196335,222.774734 223.129013,220.773300 221.978699,219.131378 
	C218.278641,213.850037 214.554810,208.585358 210.028687,202.162811 
	C210.028687,208.580627 210.065018,213.774643 210.003204,218.967499 
	C209.987686,220.271759 210.729584,222.130539 208.118576,222.063187 
	C205.636429,221.999176 206.204147,220.252335 206.195969,218.879181 
	C206.157318,212.384338 206.137115,205.888702 206.210327,199.394470 
	C206.225250,198.070740 205.369507,196.200821 207.602890,195.710968 
	C209.312210,195.336044 210.333359,196.313431 211.270935,197.659256 
	C215.209305,203.312485 219.230560,208.907974 223.970810,215.579193 
	C223.970810,210.744293 223.970810,207.163437 223.970749,203.113815 
z"/>
<path fill="#F4F4F4" opacity="1.000000" stroke="none" 
	d="
M126.109932,209.263748 
	C126.109146,213.054321 126.107101,216.383575 126.107338,219.712814 
	C126.107414,220.891815 126.217880,222.037186 124.422356,222.036301 
	C122.622803,222.035400 122.721085,220.892426 122.720734,219.699448 
	C122.718704,212.874634 122.676392,206.049454 122.742256,199.225327 
	C122.753792,198.029755 122.006126,196.335327 123.792023,195.783997 
	C125.434090,195.277084 126.515701,196.219971 127.463539,197.615845 
	C130.354721,201.873703 133.375763,206.043655 136.364822,210.234619 
	C137.286713,211.527206 138.268082,212.777374 140.079376,215.187531 
	C140.079376,209.010345 140.049789,204.119171 140.097031,199.228745 
	C140.111633,197.717819 139.388794,195.650818 142.175247,195.719986 
	C144.702606,195.782730 143.911926,197.703659 143.924011,199.013168 
	C143.983856,205.504623 143.999573,211.997650 143.905304,218.488312 
	C143.888626,219.635956 144.774979,221.309250 142.978058,221.895935 
	C141.176559,222.484116 139.954498,221.632065 138.882217,220.047028 
	C135.440918,214.960068 131.846878,209.976212 128.290833,204.967422 
	C127.851715,204.348938 127.558998,203.479904 126.109566,203.537140 
	C126.109566,205.292923 126.109566,207.047668 126.109932,209.263748 
z"/>
<path fill="#F4F4F4" opacity="1.000000" stroke="none" 
	d="
M184.103958,198.310425 
	C186.129379,194.587845 188.133057,194.517105 189.662201,198.112137 
	C192.945450,205.831039 196.028397,213.635132 199.221130,221.472549 
	C196.845459,222.527786 195.289032,222.269852 194.617508,219.649399 
	C193.089752,213.687592 188.207275,216.786514 184.752472,216.083023 
	C181.919128,215.506119 179.925934,216.496735 179.321091,219.536743 
	C178.787430,222.218964 177.137741,222.492432 174.660400,221.532867 
	C177.782654,213.877213 180.885956,206.268082 184.103958,198.310425 
z"/>
<path fill="#F4F4F4" opacity="1.000000" stroke="none" 
	d="
M159.193192,195.693207 
	C161.986984,195.693481 164.319336,195.681747 166.651474,195.700119 
	C167.791595,195.709106 169.035507,195.498703 169.101898,197.306458 
	C169.167755,199.100281 168.015594,199.023285 166.820099,199.017242 
	C165.320831,199.009659 163.783554,199.232132 162.329330,198.976364 
	C158.130356,198.237839 157.586639,200.312149 157.556335,203.921097 
	C157.527512,207.355850 158.733109,207.952621 161.834488,208.052124 
	C163.870285,208.117447 167.766327,206.046677 167.819473,209.604279 
	C167.860184,212.328537 163.992523,211.083954 162.089783,210.884979 
	C158.020248,210.459412 157.552750,212.219299 157.524078,215.665466 
	C157.507111,217.704468 159.524536,221.736221 155.916718,221.739349 
	C151.892090,221.742844 154.283737,217.632019 154.108658,215.489487 
	C153.702957,210.524948 154.246887,205.485733 153.895187,200.512909 
	C153.620056,196.622772 154.802994,194.983337 159.193192,195.693207 
z"/>
<path fill="#E5E5E5" opacity="1.000000" stroke="none" 
	d="
M108.949799,200.352386 
	C109.516037,198.478607 107.484718,195.797577 110.706947,195.715469 
	C113.794701,195.636765 112.664330,198.220825 112.690971,199.762680 
	C112.799614,206.051697 112.750778,212.343796 112.720940,218.634583 
	C112.713577,220.187134 113.270981,222.191681 110.533890,222.040909 
	C107.926147,221.897263 109.023071,219.879578 109.000519,218.684586 
	C108.888084,212.726898 108.949631,206.765915 108.949799,200.352386 
z"/>
<path fill="#F7F7F7" opacity="1.000000" stroke="none" 
	d="
M322.150696,203.024628 
	C326.594208,201.011414 329.928894,202.225250 331.597504,206.109512 
	C332.868469,209.068100 332.564514,212.446274 329.356567,214.500427 
	C326.106903,216.581314 322.733551,216.252716 320.443817,213.245819 
	C317.784515,209.753555 318.231812,206.124023 322.150696,203.024628 
z"/>
<path fill="#0C0C0C" opacity="1.000000" stroke="none" 
	d="
M188.137421,203.927948 
	C189.375748,207.012024 190.508698,209.733948 191.779648,212.787445 
	C188.407776,212.787445 185.482208,212.787445 182.178986,212.787445 
	C183.485535,209.516617 184.660065,206.304703 186.051834,203.189819 
	C186.943390,201.194412 187.587128,202.270065 188.137421,203.927948 
z"/>
</svg>